<?xml version="1.0" standalone="no"?>
<!DOCTYPE svg PUBLIC "-//W3C//DTD SVG 20010904//EN"
    "http://www.w3.org/TR/2001/REC-SVG-20010904/DTD/svg10.dtd">
<svg version="1.0" xmlns="http://www.w3.org/2000/svg"
     width="700.000000pt" height="700.000000pt" viewBox="0 0 700.000000 700.000000"
     preserveAspectRatio="xMidYMid meet">
    <metadata>
        Created by potrace 1.14, written by Peter Selinger 2001-2017
    </metadata>
    <g transform="translate(0.000000,700.000000) scale(0.100000,-0.100000)"
       fill="#000000" stroke="none">
        <path d="M3278 6995 c-1 -1 -42 -5 -89 -9 -47 -4 -96 -9 -109 -11 -12 -2 -48
-7 -79 -11 -57 -6 -76 -9 -121 -19 -34 -7 -69 -14 -105 -21 -284 -51 -711
-214 -1005 -382 -180 -104 -422 -272 -520 -362 -9 -8 -48 -43 -88 -78 -442
-391 -797 -933 -986 -1507 -47 -142 -60 -190 -100 -375 -36 -167 -46 -237 -63
-420 -15 -162 -8 -605 11 -707 2 -10 7 -43 10 -73 4 -30 8 -64 11 -75 2 -11 4
-30 4 -43 1 -27 43 -48 226 -110 384 -131 689 -186 1020 -186 151 0 230 7 335
28 255 54 476 172 654 350 210 209 338 437 471 839 41 125 79 235 85 245 5 9
23 49 41 87 168 365 507 689 894 852 33 14 74 31 90 38 121 53 401 126 575
149 102 14 129 17 210 25 85 9 582 7 630 -2 14 -3 54 -8 90 -12 36 -3 82 -10
102 -14 20 -5 39 -6 42 -3 19 18 -14 -86 -54 -173 -5 -11 -42 -103 -81 -205
-40 -102 -93 -239 -119 -305 l-48 -120 -39 2 c-144 8 -420 10 -478 2 -38 -4
-90 -11 -115 -14 -151 -18 -381 -85 -500 -145 -267 -133 -431 -331 -521 -625
-69 -228 -121 -359 -216 -553 -219 -449 -507 -774 -873 -988 -87 -51 -104 -60
-225 -114 -160 -72 -377 -130 -580 -156 -22 -3 -51 -8 -65 -11 -46 -9 -474
-12 -545 -3 -38 4 -99 10 -135 14 -36 3 -74 8 -85 10 -11 2 -41 6 -66 10 -88
13 -273 50 -330 66 -18 5 -34 8 -37 6 -5 -5 40 -93 90 -174 98 -161 167 -260
272 -392 145 -182 310 -350 526 -534 14 -12 68 -53 120 -91 323 -240 666 -415
1035 -531 157 -49 196 -59 340 -90 53 -11 245 -44 285 -48 282 -32 696 -28
917 8 21 4 54 9 73 11 19 3 46 7 60 10 14 3 41 8 60 11 19 3 62 13 95 21 33 8
69 17 79 19 96 19 353 105 509 171 112 47 332 157 398 199 21 13 41 24 44 24
3 0 11 5 18 10 7 6 62 43 124 84 309 206 607 485 829 776 27 36 51 67 54 70
13 13 94 135 152 230 189 306 346 686 424 1023 2 9 6 27 9 40 14 60 55 299 60
352 4 33 9 71 11 85 9 47 11 525 4 605 -15 157 -21 210 -25 225 -2 8 -7 35
-10 60 -8 59 -40 212 -70 330 -91 360 -274 760 -493 1080 -56 82 -184 251
-217 286 -5 7 -35 40 -65 74 -105 120 -292 296 -449 423 -290 235 -702 454
-1082 576 -170 55 -401 111 -519 126 -19 3 -46 7 -60 10 -13 2 -52 7 -86 11
-33 3 -74 8 -90 10 -33 5 -540 14 -546 9z"/>
    </g>
</svg>
